<?xml version="1.0" encoding="utf-8"?>
<COLLADA xmlns="http://www.collada.org/2005/11/COLLADASchema" version="1.4.1" xmlns:xsi="http://www.w3.org/2001/XMLSchema-instance">
  <asset>
    <contributor>
      <author>Blender User</author>
      <authoring_tool>Blender 4.2.0 commit date:2024-07-16, commit time:06:20, hash:a51f293548ad</authoring_tool>
    </contributor>
    <created>2024-08-12T11:14:04</created>
    <modified>2024-08-12T11:14:04</modified>
    <unit name="meter" meter="1"/>
    <up_axis>Z_UP</up_axis>
  </asset>
  <library_effects/>
  <library_images/>
  <library_geometries>
    <geometry id="meca500_needle_holder_pin_001-mesh" name="meca500_needle_holder_pin_001">
      <mesh>
        <source id="meca500_needle_holder_pin_001-mesh-positions">
          <float_array id="meca500_needle_holder_pin_001-mesh-positions-array" count="24">3.75 -18 7.1 -3.75 -18 7.1 -3.75 -30 7.1 3.75 -30 7.1 3.75 -30 4.3 3.75 -18 4.3 -3.75 -18 4.3 -3.75 -30 4.3</float_array>
          <technique_common>
            <accessor source="#meca500_needle_holder_pin_001-mesh-positions-array" count="8" stride="3">
              <param name="X" type="float"/>
              <param name="Y" type="float"/>
              <param name="Z" type="float"/>
            </accessor>
          </technique_common>
        </source>
        <source id="meca500_needle_holder_pin_001-mesh-normals">
          <float_array id="meca500_needle_holder_pin_001-mesh-normals-array" count="24">0.5773366 0.5773563 0.577358 -0.5773471 0.5773367 0.577367 -0.5773599 -0.5773296 0.5773614 0.5773503 -0.5773503 0.5773503 0.5773466 -0.5773363 -0.577368 0.5773603 0.5773302 -0.5773603 -0.5773498 0.5773498 -0.5773513 -0.577337 -0.5773569 -0.5773569</float_array>
          <technique_common>
            <accessor source="#meca500_needle_holder_pin_001-mesh-normals-array" count="8" stride="3">
              <param name="X" type="float"/>
              <param name="Y" type="float"/>
              <param name="Z" type="float"/>
            </accessor>
          </technique_common>
        </source>
        <vertices id="meca500_needle_holder_pin_001-mesh-vertices">
          <input semantic="POSITION" source="#meca500_needle_holder_pin_001-mesh-positions"/>
        </vertices>
        <triangles count="12">
          <input semantic="VERTEX" source="#meca500_needle_holder_pin_001-mesh-vertices" offset="0"/>
          <input semantic="NORMAL" source="#meca500_needle_holder_pin_001-mesh-normals" offset="1"/>
          <p>0 0 1 1 2 2 0 0 2 2 3 3 0 0 3 3 4 4 5 5 0 0 4 4 6 6 5 5 4 4 6 6 4 4 7 7 1 1 6 6 7 7 1 1 7 7 2 2 5 5 6 6 1 1 0 0 5 5 1 1 7 7 4 4 2 2 4 4 3 3 2 2</p>
        </triangles>
      </mesh>
    </geometry>
  </library_geometries>
  <library_visual_scenes>
    <visual_scene id="Scene" name="Scene">
      <node id="meca500_needle_holder_pin_001" name="meca500_needle_holder_pin_001" type="NODE">
        <matrix sid="transform">-4.37114e-11 4.37114e-11 0.001 0 0.001 0 4.37114e-11 0 0 0.001 -4.37114e-11 0 0 0 0 1</matrix>
        <instance_geometry url="#meca500_needle_holder_pin_001-mesh" name="meca500_needle_holder_pin_001"/>
      </node>
    </visual_scene>
  </library_visual_scenes>
  <scene>
    <instance_visual_scene url="#Scene"/>
  </scene>
</COLLADA>